<mxfile host="app.diagrams.net" agent="Mozilla/5.0 (Windows NT 10.0; Win64; x64) AppleWebKit/537.36 (KHTML, like Gecko) Chrome/131.0.0.0 Safari/537.36 Edg/131.0.0.0" version="26.0.6">
  <diagram name="Page-1" id="QZl0Wq-tefGvvEdPJzdO">
    <mxGraphModel dx="659" dy="652" grid="0" gridSize="10" guides="1" tooltips="1" connect="1" arrows="1" fold="1" page="1" pageScale="1" pageWidth="850" pageHeight="1100" math="0" shadow="0">
      <root>
        <mxCell id="0" />
        <mxCell id="1" parent="0" />
        <mxCell id="v8h85qZAjAOCZcwF6tzX-4" style="edgeStyle=orthogonalEdgeStyle;rounded=0;orthogonalLoop=1;jettySize=auto;html=1;exitX=1;exitY=0.5;exitDx=0;exitDy=0;entryX=0;entryY=0.5;entryDx=0;entryDy=0;" edge="1" parent="1" source="v8h85qZAjAOCZcwF6tzX-1" target="v8h85qZAjAOCZcwF6tzX-2">
          <mxGeometry relative="1" as="geometry">
            <Array as="points">
              <mxPoint x="294" y="456" />
              <mxPoint x="294" y="396" />
            </Array>
          </mxGeometry>
        </mxCell>
        <mxCell id="v8h85qZAjAOCZcwF6tzX-6" style="edgeStyle=orthogonalEdgeStyle;rounded=0;orthogonalLoop=1;jettySize=auto;html=1;exitX=1;exitY=0.5;exitDx=0;exitDy=0;entryX=0;entryY=0.5;entryDx=0;entryDy=0;" edge="1" parent="1" source="v8h85qZAjAOCZcwF6tzX-1" target="v8h85qZAjAOCZcwF6tzX-3">
          <mxGeometry relative="1" as="geometry">
            <Array as="points">
              <mxPoint x="294" y="456" />
              <mxPoint x="294" y="516" />
            </Array>
          </mxGeometry>
        </mxCell>
        <mxCell id="v8h85qZAjAOCZcwF6tzX-1" value="Weather Station" style="rounded=1;whiteSpace=wrap;html=1;fillColor=#f5f5f5;fontColor=#333333;strokeColor=#666666;" vertex="1" parent="1">
          <mxGeometry x="82" y="426" width="120" height="60" as="geometry" />
        </mxCell>
        <mxCell id="v8h85qZAjAOCZcwF6tzX-2" value="Display" style="rounded=1;whiteSpace=wrap;html=1;fillColor=#f5f5f5;fontColor=#333333;strokeColor=#666666;" vertex="1" parent="1">
          <mxGeometry x="359" y="366" width="120" height="60" as="geometry" />
        </mxCell>
        <mxCell id="v8h85qZAjAOCZcwF6tzX-3" value="Mobile" style="rounded=1;whiteSpace=wrap;html=1;fillColor=#f5f5f5;fontColor=#333333;strokeColor=#666666;" vertex="1" parent="1">
          <mxGeometry x="359" y="486" width="120" height="60" as="geometry" />
        </mxCell>
        <mxCell id="v8h85qZAjAOCZcwF6tzX-7" value="Temperature" style="text;html=1;align=center;verticalAlign=middle;resizable=0;points=[];autosize=1;strokeColor=none;fillColor=none;" vertex="1" parent="1">
          <mxGeometry x="206" y="429" width="85" height="26" as="geometry" />
        </mxCell>
        <mxCell id="v8h85qZAjAOCZcwF6tzX-10" value="" style="rounded=1;whiteSpace=wrap;html=1;fillColor=none;" vertex="1" parent="1">
          <mxGeometry x="50" y="270" width="482" height="351" as="geometry" />
        </mxCell>
        <mxCell id="v8h85qZAjAOCZcwF6tzX-13" value="App" style="text;html=1;align=center;verticalAlign=middle;whiteSpace=wrap;rounded=0;" vertex="1" parent="1">
          <mxGeometry x="71" y="293" width="60" height="30" as="geometry" />
        </mxCell>
      </root>
    </mxGraphModel>
  </diagram>
</mxfile>
